<mxfile host="Electron" modified="2024-03-01T02:35:41.842Z" agent="Mozilla/5.0 (Windows NT 10.0; Win64; x64) AppleWebKit/537.36 (KHTML, like Gecko) draw.io/23.1.5 Chrome/120.0.6099.109 Electron/28.1.0 Safari/537.36" etag="OzspFygXOZ6UGTC6KOlD" version="23.1.5" type="device">
  <diagram name="Page-1" id="DB0nXMN6OhLnCasOkFPr">
    <mxGraphModel dx="915" dy="823" grid="0" gridSize="10" guides="1" tooltips="1" connect="1" arrows="1" fold="1" page="0" pageScale="1" pageWidth="850" pageHeight="1100" math="0" shadow="0">
      <root>
        <mxCell id="0" />
        <mxCell id="1" parent="0" />
        <mxCell id="zgZFg0AABWsbDgAZYkge-11" value="&lt;font style=&quot;font-size: 69px;&quot; face=&quot;Impact&quot;&gt;JADGE&lt;/font&gt;" style="text;html=1;align=center;verticalAlign=middle;whiteSpace=wrap;rounded=0;" vertex="1" parent="1">
          <mxGeometry x="252" y="83" width="261" height="101" as="geometry" />
        </mxCell>
      </root>
    </mxGraphModel>
  </diagram>
</mxfile>
